<?xml version="1.0" standalone="no"?>
<!DOCTYPE svg PUBLIC "-//W3C//DTD SVG 20010904//EN"
 "http://www.w3.org/TR/2001/REC-SVG-20010904/DTD/svg10.dtd">
<svg version="1.0" xmlns="http://www.w3.org/2000/svg"
 width="1500.000000pt" height="1500.000000pt" viewBox="0 0 1500.000000 1500.000000"
 preserveAspectRatio="xMidYMid meet">
<metadata>
Created by potrace 1.11, written by Peter Selinger 2001-2013
</metadata>
<g transform="translate(0.000000,1500.000000) scale(0.100000,-0.100000)"
fill="#000000" stroke="none">
<path d="M6055 11382 c-64 -4 -182 -31 -280 -63 -148 -50 -326 -145 -567 -304
-124 -82 -277 -181 -338 -220 -125 -79 -209 -132 -355 -226 -55 -36 -183 -118
-285 -183 -102 -64 -249 -159 -328 -209 -78 -51 -209 -135 -290 -187 -284
-182 -676 -442 -721 -478 -78 -63 -210 -200 -273 -285 -93 -126 -146 -221
-248 -442 -39 -85 -122 -353 -151 -490 -7 -33 -13 -62 -14 -65 0 -3 -4 -27 -9
-53 -4 -27 -9 -59 -12 -70 -8 -40 -20 -125 -29 -207 -3 -30 -7 -71 -10 -90
-23 -198 -24 -693 -1 -830 3 -14 7 -52 11 -85 4 -32 8 -62 10 -65 2 -3 6 -22
9 -42 15 -95 80 -302 132 -421 160 -361 454 -725 779 -962 22 -16 42 -32 45
-35 3 -4 84 -58 180 -121 96 -63 304 -199 462 -304 158 -104 361 -238 450
-296 243 -160 692 -455 783 -515 44 -30 136 -94 203 -144 562 -411 1042 -464
1352 -151 87 88 124 144 186 283 120 271 165 483 159 743 -4 162 -5 172 -37
315 -73 332 -268 672 -556 971 -140 145 -226 218 -396 335 -72 49 -200 137
-285 196 -150 103 -359 246 -574 393 -488 334 -608 417 -605 420 2 1 109 73
238 160 443 298 862 590 1235 859 75 54 341 251 345 256 3 3 43 34 90 70 210
160 349 333 443 552 36 84 83 234 93 297 3 18 8 43 10 55 19 91 25 397 10 511
-5 33 -9 71 -11 85 -24 216 -164 590 -291 781 -127 191 -313 278 -559 261z"/>
<path d="M8794 11360 c-152 -31 -250 -84 -359 -194 -86 -86 -132 -156 -191
-289 -159 -360 -195 -674 -119 -1062 13 -67 86 -267 133 -365 112 -234 283
-464 498 -672 137 -132 176 -160 1197 -858 587 -401 589 -403 575 -415 -7 -7
-123 -86 -258 -177 -836 -562 -1607 -1118 -1779 -1283 -112 -107 -200 -227
-266 -360 -51 -104 -107 -255 -118 -320 -3 -17 -10 -54 -16 -84 -35 -174 -33
-432 5 -646 31 -179 73 -324 138 -474 174 -404 354 -548 666 -536 100 4 119 7
213 31 198 51 374 139 679 340 124 82 252 165 284 185 33 20 212 135 399 254
187 120 372 237 410 262 39 24 142 91 230 148 88 57 187 121 220 141 60 38
196 126 525 342 96 63 204 138 240 167 262 210 451 501 587 900 28 83 65 212
78 275 26 123 39 191 50 265 4 22 8 47 10 55 2 8 7 47 11 85 3 39 8 77 9 86
19 99 26 626 11 794 -15 175 -74 454 -115 550 -5 11 -21 52 -36 90 -44 110
-147 307 -185 352 -5 7 -10 15 -10 18 0 5 -99 145 -110 155 -3 3 -25 30 -50
60 -118 147 -322 338 -481 453 -57 41 -197 133 -222 146 -15 8 -27 18 -27 23
0 4 -4 8 -10 8 -5 0 -103 62 -217 138 -204 135 -472 312 -795 524 -524 342
-675 443 -731 487 -266 206 -552 351 -779 394 -86 16 -232 20 -294 7z"/>
</g>
</svg>
